<svg width="40" height="39" viewBox="0 0 40 39" fill="none" xmlns="http://www.w3.org/2000/svg">
<g filter="url(#filter0_d_12526_577)">
<circle cx="19.9678" cy="18.7105" r="15.1416" transform="rotate(180 19.9678 18.7105)" fill="white"/>
<circle cx="19.9678" cy="18.7105" r="14.8892" transform="rotate(180 19.9678 18.7105)" stroke="#EDEDED" stroke-width="0.504719"/>
</g>
<path d="M16.579 18.3529L21.6262 13.3057C21.6731 13.2588 21.7288 13.2216 21.79 13.1963C21.8513 13.1709 21.917 13.1578 21.9833 13.1578C22.0496 13.1578 22.1153 13.1709 22.1765 13.1963C22.2378 13.2216 22.2935 13.2588 22.3404 13.3057C22.3873 13.3526 22.4245 13.4083 22.4498 13.4696C22.4752 13.5308 22.4883 13.5965 22.4883 13.6628C22.4883 13.7291 22.4752 13.7948 22.4498 13.8561C22.4245 13.9173 22.3873 13.973 22.3404 14.0199L17.6496 18.71L22.3404 23.4001C22.4351 23.4948 22.4883 23.6233 22.4883 23.7572C22.4883 23.8911 22.4351 24.0196 22.3404 24.1143C22.2457 24.209 22.1172 24.2622 21.9833 24.2622C21.8493 24.2622 21.7209 24.209 21.6262 24.1143L16.579 19.0671C16.5321 19.0202 16.4948 18.9646 16.4694 18.9033C16.444 18.842 16.431 18.7763 16.431 18.71C16.431 18.6437 16.444 18.578 16.4694 18.5167C16.4948 18.4555 16.5321 18.3998 16.579 18.3529Z" fill="#0582C1"/>
<defs>
<filter id="filter0_d_12526_577" x="0.788418" y="0.540532" width="38.3587" height="38.3587" filterUnits="userSpaceOnUse" color-interpolation-filters="sRGB">
<feFlood flood-opacity="0" result="BackgroundImageFix"/>
<feColorMatrix in="SourceAlpha" type="matrix" values="0 0 0 0 0 0 0 0 0 0 0 0 0 0 0 0 0 0 127 0" result="hardAlpha"/>
<feOffset dy="1.00944"/>
<feGaussianBlur stdDeviation="2.01888"/>
<feComposite in2="hardAlpha" operator="out"/>
<feColorMatrix type="matrix" values="0 0 0 0 0 0 0 0 0 0 0 0 0 0 0 0 0 0 0.06 0"/>
<feBlend mode="normal" in2="BackgroundImageFix" result="effect1_dropShadow_12526_577"/>
<feBlend mode="normal" in="SourceGraphic" in2="effect1_dropShadow_12526_577" result="shape"/>
</filter>
</defs>
</svg>
