<svg width="169" height="119" viewBox="0 0 169 119" fill="none" xmlns="http://www.w3.org/2000/svg">
<path d="M44.0078 39.0429V42.5741L52.752 39.0429L56.4666 56.2483V37.0572L84.009 24.0431L111.981 36.8372V56.2483L116.356 38.6028L123.785 42.354V39.0429L108.921 31.9857L109.361 16.7659H97.3374V25.3686L83.8989 19.1916L44.0078 39.0429Z" fill="#0B84DF"/>
<path d="M83.7639 35.1868H78.1895V40.8137H83.7639V35.1868Z" fill="#6CB920"/>
<path d="M90.5745 35.1868H85V40.8137H90.5745V35.1868Z" fill="#6CB920"/>
<path d="M90.5745 42.3278H85V48.1224H90.5745V42.3278Z" fill="#6CB920"/>
<path d="M83.7639 42.3278H78.1895V48.1224H83.7639V42.3278Z" fill="#6CB920"/>
<path d="M106.732 58.3126C108.265 58.3126 109.509 57.0577 109.509 55.5096C109.509 53.9616 108.265 52.7067 106.732 52.7067C105.198 52.7067 103.955 53.9616 103.955 55.5096C103.955 57.0577 105.198 58.3126 106.732 58.3126Z" fill="#0666F4"/>
<path d="M63.3564 57.511C64.8465 57.511 66.0546 56.2936 66.0546 54.7919C66.0546 53.2902 64.8465 52.0728 63.3564 52.0728C61.8662 52.0728 60.6582 53.2902 60.6582 54.7919C60.6582 56.2936 61.8662 57.511 63.3564 57.511Z" fill="#0666F4"/>
<path d="M85.0051 56.2746C86.8859 56.2746 88.4105 54.7358 88.4105 52.8377C88.4105 50.9395 86.8859 49.4008 85.0051 49.4008C83.1243 49.4008 81.5996 50.9395 81.5996 52.8377C81.5996 54.7358 83.1243 56.2746 85.0051 56.2746Z" fill="#339803"/>
<path d="M94.274 8.03217C94.274 8.03217 101.997 8.77089 102.154 11.2176C102.154 11.2176 102.892 13.6119 98.3134 13.7534C93.9073 13.8896 94.2792 8.03217 94.2792 8.03217H94.274Z" fill="#68BA16"/>
<path d="M101.97 4.19708C101.97 4.19708 99.309 11.6105 108.556 11.6105C115.818 11.6105 118.537 1.40984 118.537 1.40984C118.537 1.40984 104.642 -1.8175 101.965 4.19708H101.97Z" fill="#68BA16"/>
<path d="M111.169 3.20161C108.309 4.98817 105.328 7.59204 105.474 11.2228L105.38 11.2647C103.363 8.58748 106.506 5.66926 108.676 4.32279C109.467 3.85126 110.279 3.43737 111.122 3.1073L111.169 3.20161Z" fill="white"/>
<path d="M101.027 13.2713C100.388 12.2916 99.5914 11.4481 98.6693 10.767C98.5436 10.6884 98.4231 10.6098 98.2449 10.6203L98.2188 10.5732C98.3497 10.4108 98.596 10.3793 98.7898 10.416C99.3766 10.4998 99.7695 10.9661 100.079 11.4062C100.498 11.9773 100.823 12.5955 101.074 13.2399L101.027 13.2661V13.2713Z" fill="white"/>
<path d="M49.6462 68.901C45.4601 69.9069 41.4993 71.2377 41.5098 72.778C41.515 73.6739 42.8667 74.4441 44.6114 75.1042C69.8957 84.7024 114.848 78.342 114.848 78.342C115.513 78.3211 118.117 77.991 119.469 77.4356C122.759 76.0892 128.129 74.4755 127.144 72.3903C126.453 70.9286 123.775 69.514 119.783 69.2887C119.783 69.2887 126.762 73.1028 117.651 75.8744C109.478 78.3577 90.9257 78.6197 90.9257 78.6197L75.4387 78.4782L73.7569 78.3734C73.5683 78.8083 49.3162 75.9739 47.3829 73.4329C46.9271 72.8304 46.2355 70.8971 49.6515 68.901H49.6462Z" fill="#0666F4"/>
<path d="M65.5105 57.5162H60.9262L54 62.2629L54.3144 64.7044L60.659 61.0317L60.5961 66.7582L56.6563 74.2449L60.5071 74.7479L63.2786 68.5395H63.5877L66.3278 74.6274H69.9952L66.5898 66.7267L66.8674 61.1156L72.8139 62.9178V60.3978L65.5105 57.5162Z" fill="#0666F4"/>
<path d="M109.509 58.2602L103.631 58.234L96.7988 61.0055L96.8669 63.8504L103.819 62.0324V66.7162L99.7852 75.3609H103.819L106.612 69.4197L107.015 69.4249L109.944 75.3609H113.769L110.484 67.3292V61.8543L116.414 65.0083L116.357 62.3153L109.509 58.2602Z" fill="#0666F4"/>
<path d="M88.4115 56.2484L81.6006 55.934L72.8145 60.3978V62.9179L81.6949 59.5438L81.5953 62.2682L74.9625 71.9921C74.8263 72.1912 74.9678 72.4584 75.2088 72.4584H94.6199C94.8557 72.4584 94.9972 72.1912 94.8662 71.9974L88.401 62.4358V59.1509L96.8623 63.8557L96.7994 61.0055L88.4063 56.2536L88.4115 56.2484Z" fill="#339803"/>
<path d="M82.5845 72.4584V75.3609H78.3984L79.1791 72.4584" fill="#339803"/>
<path d="M86.834 72.4584V75.3609H91.5545L90.7529 72.4584" fill="#339803"/>
<path d="M37.0103 81.3912C37.0103 81.5012 36.9946 81.5798 36.9684 81.6322C36.9422 81.6846 36.9055 81.7474 36.8584 81.8103C36.8112 81.8732 36.7693 81.957 36.7117 82.0565C36.6593 82.1561 36.6069 82.3028 36.565 82.4966C36.5231 82.6957 36.4812 82.8739 36.4392 83.0206C36.3973 83.1673 36.3659 83.314 36.3397 83.4502C36.3135 83.5864 36.2873 83.7226 36.2716 83.8641C36.2559 84.0055 36.2454 84.1679 36.2454 84.3513C36.2454 84.6761 36.2402 84.9905 36.2244 85.3101C36.2087 85.6297 36.1878 85.9545 36.1616 86.295C36.1354 86.6356 36.0987 86.9919 36.0568 87.3586C36.0149 87.7253 35.973 88.1288 35.9206 88.5584C35.8472 89.1661 35.7791 89.8105 35.7058 90.4916C35.6324 91.1727 35.5957 91.8748 35.5957 92.5978V93.2736C35.5957 93.5304 35.5957 93.808 35.6115 94.1014C35.6219 94.3948 35.6376 94.6935 35.6534 94.9973C35.6691 95.3012 35.6953 95.5998 35.7319 95.8828C35.7686 95.9194 35.8001 95.9404 35.821 95.9509C35.8472 95.9613 35.8839 95.9823 35.931 96.019C36.1878 96.1814 36.3764 96.3281 36.4916 96.4486C36.6069 96.5691 36.6645 96.7367 36.6645 96.9411C36.6645 97.093 36.6174 97.2502 36.5231 97.4178C36.4288 97.5855 36.3083 97.7427 36.1511 97.8841C35.9939 98.0256 35.821 98.1461 35.6272 98.2404C35.4281 98.3347 35.229 98.3818 35.0194 98.3818C34.6055 98.3818 34.2597 98.2509 33.9873 97.9941C33.7149 97.7374 33.5001 97.4074 33.3481 96.9987C33.1962 96.5953 33.0862 96.1447 33.0233 95.647C32.9604 95.1493 32.9342 94.6568 32.9342 94.1695V93.7923C32.9342 93.5932 32.9552 93.2894 32.9919 92.8807C33.0285 92.472 33.0809 92.0058 33.1438 91.4818C33.2067 90.9579 33.2748 90.4026 33.3481 89.8158C33.4215 89.229 33.5001 88.6527 33.5839 88.0921C33.6677 87.5315 33.7463 87.0076 33.8197 86.5203C33.893 86.0331 33.9611 85.6297 34.0187 85.3153C33.9349 85.4253 33.8144 85.5773 33.6572 85.7816C33.5053 85.9859 33.3324 86.2112 33.1438 86.4627C32.9552 86.7142 32.7509 86.9761 32.5413 87.2591C32.3317 87.542 32.1274 87.8144 31.9283 88.0816C31.7292 88.3488 31.5458 88.6003 31.3677 88.8413C31.1896 89.0771 31.0429 89.2761 30.9224 89.4438C30.6499 89.8158 30.388 90.1878 30.1365 90.5493C29.885 90.9108 29.6231 91.2932 29.3506 91.6757C29.3297 91.6966 29.293 91.7438 29.2458 91.8171C29.1987 91.8905 29.1463 91.9691 29.0887 92.0581C29.031 92.1472 28.9734 92.2363 28.9158 92.3201C28.8581 92.4039 28.8058 92.472 28.7638 92.514C28.2609 93.1898 27.7108 93.6089 27.1083 93.7818C26.7206 93.6613 26.4114 93.5251 26.1809 93.3837C25.9452 93.2422 25.7565 93.085 25.6046 92.9174C25.4527 92.7497 25.3269 92.5663 25.2222 92.362C25.1174 92.1577 24.9969 91.9481 24.8607 91.7281C24.7192 91.4871 24.5882 91.2618 24.473 91.0627C24.3577 90.8636 24.2581 90.6855 24.1743 90.5231C23.9857 90.1878 23.8128 89.8315 23.6504 89.4595C23.488 89.0875 23.3308 88.7051 23.1894 88.3226C23.0898 87.9978 23.0007 87.7253 22.9274 87.4948C22.854 87.2643 22.7807 87.0495 22.7178 86.8504C22.655 86.6513 22.5868 86.447 22.524 86.2374C22.4611 86.0278 22.3878 85.7868 22.3092 85.5092C22.2935 85.5616 22.2673 85.6821 22.2253 85.8759C22.1834 86.0698 22.131 86.3108 22.0629 86.5937C21.9948 86.8766 21.9267 87.2014 21.8481 87.5525C21.7695 87.9035 21.6909 88.2597 21.6124 88.6265C21.5338 88.9932 21.4552 89.3495 21.3818 89.6953C21.3085 90.0411 21.2404 90.3554 21.1775 90.6331C21.1146 90.9108 21.0622 91.1413 21.0203 91.3247C20.9784 91.508 20.9522 91.6181 20.947 91.6495C20.8055 92.2206 20.7322 92.7654 20.7322 93.2841C20.7322 93.3941 20.7322 93.5566 20.7217 93.7818C20.7165 94.0071 20.7112 94.2481 20.706 94.5048C20.706 94.7616 20.6955 95.0026 20.6903 95.2383C20.685 95.4741 20.6798 95.6575 20.6798 95.7884C20.6798 95.8985 20.6483 96.0295 20.5855 96.1866C20.5226 96.3438 20.4335 96.4957 20.3183 96.6372C20.203 96.7787 20.072 96.9044 19.9201 97.0092C19.7682 97.114 19.611 97.1663 19.4486 97.1663C19.2128 97.1663 19.0085 97.1559 18.8356 97.1349C18.6627 97.114 18.516 97.072 18.3903 97.0039C18.2645 96.9411 18.1545 96.8468 18.0602 96.7263C17.9659 96.6058 17.8821 96.4486 17.8035 96.2547C17.7773 96.1919 17.7511 96.1185 17.7406 96.0452C17.7249 95.9718 17.7144 95.8775 17.7039 95.7623C17.6935 95.647 17.683 95.5055 17.683 95.3379C17.683 95.1702 17.6777 94.9554 17.6777 94.6987C17.6777 94.6201 17.7039 94.4629 17.7563 94.2219C17.8087 93.9809 17.8768 93.6928 17.9606 93.3575C18.0445 93.0222 18.1335 92.6554 18.2331 92.2677C18.3326 91.88 18.4374 91.4923 18.537 91.1203C18.6417 90.7431 18.736 90.3921 18.8251 90.0568C18.9142 89.7267 18.9875 89.4543 19.0452 89.2447C19.1447 88.8884 19.2495 88.5165 19.3543 88.1288C19.4591 87.7411 19.5691 87.3534 19.6739 86.9552C19.7786 86.5622 19.8834 86.1693 19.983 85.7764C20.0878 85.3887 20.1821 85.0167 20.2659 84.6657C20.3078 84.3094 20.3497 84.0474 20.3969 83.8798C20.4388 83.6859 20.4964 83.4816 20.5698 83.2616C20.6431 83.0415 20.7269 82.8424 20.8317 82.6591C20.9365 82.4757 21.0622 82.3237 21.2089 82.2032C21.3556 82.0827 21.5285 82.0199 21.7329 82.0199C22.3144 82.0199 22.7755 82.0827 23.1265 82.2137C23.4775 82.3447 23.7552 82.5438 23.9648 82.811C24.1743 83.0782 24.342 83.424 24.4625 83.8483C24.583 84.2727 24.7087 84.7809 24.8397 85.373C24.8764 85.5354 24.9183 85.6821 24.9707 85.8078C25.0231 85.9335 25.0755 86.0698 25.1331 86.2217C25.3741 86.9657 25.6727 87.7044 26.0185 88.4379C26.3643 89.1714 26.7677 89.8996 27.2288 90.6121C27.4174 90.4602 27.585 90.2716 27.737 90.0358C27.8889 89.8053 28.0618 89.5171 28.2452 89.1818C28.4076 88.8884 28.5752 88.6108 28.7429 88.3488C28.9105 88.0868 29.1044 87.8406 29.3192 87.6048C29.3978 87.521 29.5235 87.3691 29.6964 87.1595C29.8693 86.9499 30.0684 86.6985 30.2937 86.4155C30.519 86.1326 30.7547 85.834 31.0062 85.5196C31.2577 85.2053 31.4935 84.9067 31.7135 84.6237C31.9335 84.3408 32.1326 84.0893 32.3055 83.8693C32.4784 83.6493 32.5989 83.4973 32.6723 83.403C32.7509 83.3087 32.8137 83.2354 32.8556 83.183C32.8976 83.1306 32.9499 83.0677 33.0181 82.9944C33.0966 82.8791 33.2276 82.7062 33.4058 82.4704C33.5839 82.2347 33.7725 81.9832 33.9716 81.716C34.1707 81.4488 34.3593 81.1973 34.5427 80.9563C34.726 80.7153 34.8622 80.5372 34.9461 80.4114C35.0456 80.2595 35.2342 80.1862 35.5171 80.1862C35.6691 80.1862 35.8263 80.2333 35.9991 80.3224C36.172 80.4114 36.3292 80.5215 36.4759 80.6472C36.6226 80.7729 36.7431 80.9144 36.8427 81.0559C36.9422 81.1973 36.9894 81.3231 36.9894 81.4331L36.9998 81.3807L37.0103 81.3912Z" fill="black"/>
<path d="M43.8155 86.8975C43.8155 86.9761 43.7998 87.1071 43.7683 87.301C43.7369 87.4948 43.6636 87.7358 43.5431 88.024C43.4488 88.2597 43.3754 88.4588 43.323 88.6212C43.2706 88.7836 43.2339 88.9094 43.2235 88.988C43.1239 89.6114 43.0296 90.2768 42.9406 90.9946C42.8515 91.7123 42.7519 92.4825 42.6419 93.3208C42.6157 93.5513 42.5843 93.7871 42.5581 94.0385C42.5267 94.2848 42.5005 94.5205 42.4795 94.7406C42.4585 94.9606 42.4376 95.1492 42.4271 95.3169C42.4114 95.4846 42.4062 95.5946 42.4062 95.6574C42.4062 95.6994 42.4166 95.757 42.4376 95.8146C42.4585 95.8775 42.4847 95.9404 42.5109 96.0085C42.5371 96.0713 42.5633 96.1395 42.5843 96.1971C42.6052 96.26 42.6157 96.3071 42.6157 96.3543C42.6157 96.48 42.579 96.6057 42.5005 96.7315C42.4219 96.8572 42.2961 96.9777 42.1232 97.0982C41.9818 97.203 41.8403 97.2816 41.6989 97.334C41.5574 97.3864 41.4159 97.4178 41.2745 97.4283C41.0125 97.4283 40.8082 97.3654 40.6667 97.2292C40.5201 97.0982 40.4153 96.941 40.3472 96.7629C40.279 96.5848 40.2371 96.3962 40.2267 96.1971C40.2162 95.998 40.2109 95.8356 40.2109 95.7046C40.2109 95.4426 40.2162 95.1912 40.2319 94.9554C40.2476 94.7196 40.2633 94.4839 40.2948 94.2533C40.3367 93.8814 40.3995 93.4465 40.4834 92.954C40.5672 92.4563 40.651 91.9324 40.7453 91.3718C40.761 91.2827 40.7872 91.1465 40.8239 90.9527C40.8606 90.7641 40.9025 90.544 40.9444 90.2925C40.9916 90.0463 41.0387 89.7843 41.0911 89.5066C41.1435 89.229 41.1959 88.967 41.2431 88.7155C41.2902 88.464 41.3374 88.2388 41.374 88.0397C41.4107 87.8406 41.4369 87.6939 41.4579 87.5943C41.4893 87.4162 41.5155 87.2748 41.5312 87.1752C41.5469 87.0757 41.5626 86.9866 41.5784 86.9028C41.5941 86.8189 41.615 86.7246 41.636 86.6199C41.657 86.5151 41.6884 86.3736 41.7251 86.185L41.7146 86.2007C41.7251 86.1117 41.7565 86.0174 41.8141 85.9126C41.8665 85.8078 41.9346 85.703 42.0132 85.6087C42.0918 85.5144 42.1809 85.4358 42.2857 85.3729C42.3852 85.3101 42.4847 85.2786 42.5843 85.2786C42.8148 85.2786 43.0087 85.331 43.1658 85.4358C43.323 85.5406 43.4488 85.6716 43.5483 85.8235C43.6426 85.9754 43.7107 86.1379 43.7526 86.3107C43.7945 86.4836 43.8155 86.6356 43.8155 86.7666V86.8871V86.8975Z" fill="black"/>
<path d="M46.5359 94.7092C46.5987 94.4682 46.6773 94.1643 46.7611 93.7871C46.845 93.4151 46.934 93.0065 47.0283 92.5716C47.1226 92.1368 47.2117 91.681 47.306 91.2042C47.4003 90.7274 47.4842 90.2664 47.5575 89.8158C47.6361 89.3652 47.699 88.9461 47.7566 88.5532C47.8142 88.1655 47.8509 87.8302 47.8771 87.5577V87.1071C47.8771 87.0076 47.8928 86.8923 47.9242 86.7509C47.9557 86.6094 48.0133 86.4784 48.0971 86.3475C48.181 86.2217 48.3015 86.1117 48.4534 86.0226C48.6053 85.9336 48.8097 85.8917 49.0611 85.8917C49.2602 85.8917 49.4279 85.9283 49.5589 86.0069C49.6846 86.0855 49.7946 86.1903 49.8837 86.3318C49.9728 86.4732 50.0461 86.6356 50.1037 86.8295C50.1614 87.0233 50.2242 87.2381 50.2924 87.4791C50.35 87.7044 50.4548 87.9821 50.6015 88.3122C50.7482 88.6422 50.9263 89.009 51.1359 89.4071C51.3454 89.8053 51.5812 90.2297 51.8484 90.675C52.1103 91.1204 52.3933 91.5709 52.6867 92.0267C52.9801 92.4825 53.2839 92.9279 53.5983 93.368C53.9126 93.8081 54.227 94.2272 54.5361 94.6149C54.6042 94.3267 54.6775 94.0176 54.7457 93.6876C54.8138 93.3627 54.8766 93.0327 54.9447 92.6974C55.0076 92.3673 55.0652 92.0372 55.1229 91.7176C55.1805 91.398 55.2329 91.1046 55.2801 90.827C55.3272 90.5545 55.3691 90.3135 55.4006 90.0987C55.4372 89.8839 55.4634 89.7215 55.4844 89.6062C55.563 89.1609 55.6311 88.768 55.694 88.4274C55.7568 88.0869 55.8092 87.7725 55.8511 87.4791C55.893 87.1857 55.9245 86.8976 55.9454 86.6094C55.9664 86.3265 55.9769 86.0174 55.9769 85.6769C55.9769 85.5878 55.9873 85.4935 56.0031 85.3887C56.0188 85.2839 56.045 85.1844 56.0712 85.0848C56.1026 84.9853 56.1393 84.8962 56.1864 84.8071C56.2336 84.7181 56.2807 84.65 56.3384 84.6028C56.4379 84.5085 56.527 84.4404 56.6108 84.388C56.6946 84.3356 56.768 84.3042 56.8466 84.2832C56.9199 84.2623 56.9933 84.2466 57.0719 84.2413C57.1504 84.2413 57.2343 84.2308 57.3233 84.2308C57.5224 84.2308 57.6744 84.278 57.7844 84.3671C57.8944 84.4561 57.9835 84.5714 58.0359 84.7128C58.0935 84.8543 58.1302 85.0115 58.1406 85.1739C58.1564 85.3415 58.1616 85.504 58.1616 85.6611C58.1616 85.7083 58.1511 85.8026 58.1302 85.9336C58.1092 86.0645 58.083 86.2113 58.0516 86.3737C58.0201 86.5361 57.9887 86.7037 57.9468 86.8714C57.9101 87.039 57.8735 87.1857 57.842 87.3115C57.6115 88.1812 57.4124 88.9985 57.25 89.7739C57.0823 90.5493 56.9409 91.2775 56.8151 91.9534C56.6894 92.6292 56.5899 93.2632 56.506 93.8447C56.4222 94.4263 56.3488 94.9554 56.2912 95.427C56.286 95.5003 56.2807 95.5632 56.2703 95.6261C56.2598 95.6889 56.2545 95.7518 56.2545 95.8251C56.2545 95.8985 56.2493 95.9823 56.2441 96.0819C56.2441 96.1814 56.2441 96.3019 56.2441 96.4486C56.2441 96.7315 56.1969 96.9516 56.1078 97.1087C56.0188 97.2659 55.9035 97.3812 55.7725 97.4545C55.6363 97.5279 55.4949 97.5698 55.3482 97.5855C55.1962 97.6012 55.0652 97.6065 54.95 97.6065C54.7142 97.6065 54.5256 97.5541 54.3842 97.4545C54.2427 97.355 54.1117 97.2135 53.986 97.0302C53.8655 96.8468 53.7345 96.632 53.6035 96.3805C53.4673 96.129 53.2892 95.8566 53.0691 95.5632C52.4561 94.7354 51.8379 93.85 51.2092 92.9069C50.5805 91.9639 49.9413 90.9108 49.2917 89.7425C49.1869 90.2297 49.0926 90.7379 49.0035 91.2671C48.9144 91.8015 48.8359 92.3254 48.7625 92.8441C48.6892 93.3627 48.6211 93.8605 48.5634 94.332C48.5058 94.8035 48.4534 95.2331 48.4062 95.6103C48.4062 95.7518 48.3958 95.909 48.3801 96.0766C48.3591 96.2443 48.3381 96.4067 48.3172 96.5534C48.291 96.7053 48.27 96.8311 48.2438 96.9411C48.2176 97.0511 48.2019 97.1192 48.1914 97.1454C48.1652 97.2083 48.1181 97.2921 48.0552 97.3917C47.9924 97.4912 47.919 97.5855 47.8352 97.6746C47.7514 97.7636 47.657 97.8422 47.547 97.9051C47.4422 97.968 47.3322 97.9994 47.217 97.9994C47.0021 97.9994 46.8345 97.968 46.7035 97.9103C46.5725 97.8475 46.4678 97.7636 46.3944 97.6484C46.3158 97.5331 46.2634 97.3917 46.2372 97.2188C46.211 97.0459 46.1953 96.8468 46.1953 96.6267C46.1953 96.5324 46.2058 96.4119 46.2215 96.26C46.2425 96.1081 46.2687 95.9457 46.3001 95.7623C46.3315 95.5789 46.3682 95.3955 46.4154 95.2122C46.4573 95.0236 46.5044 94.8454 46.5463 94.683L46.5359 94.7092Z" fill="black"/>
<path d="M72.4959 84.891C72.4959 85.1686 72.4645 85.5301 72.4016 85.9702C72.3388 86.4103 72.2549 86.929 72.1449 87.5263C72.0244 88.1707 71.8987 88.8675 71.7677 89.6167C71.6367 90.3659 71.5424 91.1308 71.4795 91.9115C71.4795 91.9481 71.4743 92.0477 71.4638 92.1996C71.4533 92.3516 71.4376 92.5454 71.4219 92.7812C71.4062 93.0169 71.3852 93.2841 71.3695 93.5775C71.3486 93.8762 71.3328 94.1905 71.3171 94.5206C71.3014 94.8506 71.2857 95.186 71.2752 95.5317C71.2647 95.8775 71.2595 96.2128 71.2595 96.5377C71.2595 96.721 71.2228 96.8887 71.1547 97.0354C71.0866 97.1821 70.9975 97.3026 70.8823 97.4021C70.767 97.5017 70.636 97.5803 70.4789 97.6326C70.3269 97.685 70.1645 97.7112 69.9968 97.7112C69.8973 97.7112 69.7925 97.6903 69.672 97.6484C69.5567 97.6065 69.4467 97.5488 69.3472 97.4702C69.2476 97.3916 69.1586 97.2921 69.0905 97.1716C69.0171 97.0511 68.9857 96.9096 68.9857 96.7472C68.9857 96.6372 68.9962 96.4853 69.0224 96.2862C69.0486 96.0871 69.0747 95.867 69.1114 95.6208C69.1481 95.3746 69.1848 95.1126 69.2319 94.8349C69.2738 94.5573 69.3157 94.2796 69.3524 94.0071C69.3891 93.7347 69.4153 93.4727 69.4415 93.2317C69.4677 92.9907 69.4782 92.7707 69.4782 92.5926C69.4782 92.493 69.4677 92.4092 69.452 92.3306C69.4362 92.252 69.3891 92.2153 69.3105 92.2153C69.1481 92.2153 68.9281 92.2258 68.6451 92.2415C68.3675 92.2625 68.0741 92.2834 67.7754 92.3044C67.4768 92.3254 67.1782 92.3516 66.89 92.3673C66.6019 92.3882 66.3713 92.3935 66.188 92.3935C66.1513 92.3935 66.057 92.3935 65.905 92.4039C65.7531 92.4144 65.5802 92.4197 65.3706 92.4301C65.1663 92.4406 64.9463 92.4563 64.7105 92.4773C64.4747 92.4983 64.2547 92.514 64.0451 92.5297C63.8356 92.5454 63.6574 92.5664 63.5107 92.5821C63.3588 92.603 63.2645 92.6188 63.2278 92.6345C63.2016 92.6607 63.1702 92.7759 63.1335 92.9698C63.0968 93.1689 63.0602 93.3942 63.0287 93.6509C62.9921 93.9128 62.9606 94.1748 62.9344 94.4368C62.9082 94.704 62.8873 94.9135 62.8768 95.0812C62.8768 95.427 62.8558 95.7623 62.8139 96.0871C62.772 96.4119 62.7039 96.7053 62.5991 96.962C62.4996 97.2188 62.3634 97.4231 62.2009 97.5803C62.0385 97.7374 61.8342 97.816 61.588 97.816C61.436 97.816 61.2998 97.7793 61.1741 97.7008C61.0536 97.6222 60.9435 97.5279 60.8597 97.4074C60.7706 97.2869 60.7025 97.1559 60.6554 97.0197C60.6082 96.8834 60.582 96.7525 60.582 96.632C60.582 96.5115 60.5925 96.3857 60.6187 96.2286C60.6449 96.0766 60.6711 95.9247 60.7025 95.7675C60.734 95.6156 60.7654 95.4741 60.7916 95.3484C60.8178 95.2226 60.8335 95.1283 60.8388 95.0655C60.9069 94.7354 60.9802 94.3477 61.0536 93.9128C61.1269 93.478 61.2003 93.0012 61.2736 92.493C61.347 91.9848 61.4203 91.4452 61.4937 90.8846C61.567 90.324 61.6403 89.7529 61.7085 89.1714C61.7766 88.5898 61.8447 88.0083 61.9075 87.432C61.9704 86.8557 62.0333 86.2951 62.0857 85.7554C62.0962 85.6716 62.1276 85.5878 62.18 85.4987C62.2324 85.4096 62.3005 85.3258 62.3843 85.2525C62.4681 85.1791 62.5677 85.1162 62.6725 85.0691C62.7825 85.0219 62.8978 84.9957 63.0183 84.9957C63.0444 84.9957 63.0706 84.9957 63.0916 84.9957C63.1126 84.9957 63.1388 85.001 63.1649 85.0062C63.3745 85.0429 63.5369 85.0953 63.6627 85.1634C63.7884 85.2315 63.8827 85.3153 63.9508 85.4201C64.0137 85.5249 64.0608 85.6454 64.0818 85.7869C64.1028 85.9283 64.1132 86.0907 64.1132 86.2793C64.1132 86.6304 64.087 86.9919 64.0399 87.3743C63.9927 87.7516 63.9246 88.1393 63.8356 88.5322C63.7989 88.7103 63.7622 88.8989 63.7255 89.098C63.6889 89.2971 63.6574 89.491 63.6312 89.6848C63.605 89.8839 63.5841 90.0725 63.5684 90.2559C63.5526 90.4393 63.5422 90.6069 63.5422 90.7693C63.5526 90.785 63.5841 90.8008 63.626 90.8112C63.6732 90.8217 63.7255 90.8322 63.7832 90.8374C63.8408 90.8427 63.9037 90.8479 63.9665 90.8479C64.0294 90.8479 64.0818 90.8479 64.1237 90.8479C64.2075 90.8479 64.3438 90.8479 64.5429 90.8479C64.7419 90.8479 64.9672 90.8374 65.2292 90.827C65.4911 90.8165 65.7741 90.806 66.0832 90.7903C66.3923 90.7746 66.7014 90.7588 67.0158 90.7379C67.3301 90.7169 67.634 90.6907 67.9274 90.6593C68.2208 90.6279 68.488 90.5964 68.729 90.5545C68.97 90.5178 69.1691 90.4707 69.321 90.4235C69.4729 90.3764 69.5725 90.3188 69.6091 90.2611C69.6353 90.2245 69.672 90.1144 69.7139 89.9311C69.7558 89.7477 69.803 89.5172 69.8554 89.2395C69.9078 88.9618 69.9602 88.6475 70.0126 88.2964C70.065 87.9454 70.1121 87.5787 70.154 87.1962C70.1959 86.8137 70.2326 86.4313 70.2588 86.0436C70.285 85.6559 70.3007 85.2891 70.3007 84.9381C70.3007 84.8752 70.3269 84.7914 70.3845 84.6919C70.4369 84.5923 70.5103 84.498 70.6046 84.4037C70.6989 84.3094 70.8089 84.2256 70.9399 84.1627C71.0709 84.0998 71.2123 84.0632 71.359 84.0632C71.4586 84.0632 71.5686 84.0789 71.6943 84.1103C71.8201 84.1418 71.9406 84.1941 72.0506 84.257C72.1606 84.3199 72.2549 84.409 72.3335 84.5085C72.4121 84.6133 72.4488 84.7338 72.454 84.8752L72.4959 84.891Z" fill="black"/>
<path d="M87.2439 96.5796C87.2439 96.7158 87.2177 96.8468 87.1653 96.962C87.1129 97.0825 87.0448 97.1873 86.9505 97.2764C86.8562 97.3655 86.7514 97.4388 86.6257 97.4912C86.4947 97.5436 86.3585 97.575 86.2118 97.575C86.0756 97.575 85.9394 97.5331 85.8084 97.444C85.6774 97.355 85.5517 97.2449 85.4259 97.1087C85.3054 96.9725 85.1849 96.8206 85.0749 96.6477C84.9649 96.4748 84.8601 96.3019 84.771 96.129C84.682 95.9561 84.5981 95.7885 84.53 95.6313C84.4567 95.4741 84.399 95.3431 84.3571 95.2383C84.2943 95.0917 84.2366 94.9554 84.179 94.8297C84.1161 94.704 84.0585 94.5415 83.9904 94.3477C83.9537 94.2377 83.9223 94.1591 83.9066 94.1014C83.8856 94.0491 83.8699 94.0071 83.8594 93.9757C83.8437 93.9443 83.8332 93.9233 83.828 93.9024C83.8175 93.8814 83.8123 93.8552 83.8018 93.8185C83.6918 93.8657 83.5765 93.8971 83.4508 93.9024C83.325 93.9128 83.1836 93.9128 83.0316 93.9128C83.0054 93.9128 82.9583 93.9233 82.8902 93.939C82.8273 93.96 82.7487 93.9809 82.6649 94.0071C82.5811 94.0333 82.492 94.0648 82.4029 94.091C82.3139 94.1224 82.2248 94.1486 82.1462 94.1695C81.8842 94.2324 81.6013 94.3005 81.2975 94.3582C80.9936 94.421 80.674 94.4787 80.3387 94.5363C80.0034 94.5939 79.6681 94.6516 79.317 94.7092C78.9713 94.7668 78.6202 94.8245 78.2744 94.8873C78.2378 94.8926 78.2011 94.903 78.1749 94.9188C78.1487 94.9345 78.112 94.9764 78.0596 95.0445C78.0125 95.1126 77.9391 95.2174 77.8396 95.3588C77.7401 95.5003 77.6038 95.7046 77.4205 95.9666C77.2109 96.2652 77.017 96.5272 76.8337 96.7472C76.6503 96.9673 76.4722 97.1559 76.3098 97.3183C76.1526 97.4755 75.9849 97.596 75.8068 97.6798C75.6287 97.7636 75.4453 97.8003 75.2567 97.8003C75.0052 97.8003 74.7799 97.7689 74.5861 97.706C74.387 97.6431 74.2246 97.5645 74.0883 97.465C73.9521 97.3655 73.8526 97.2607 73.7845 97.1454C73.7164 97.0301 73.6797 96.9254 73.6797 96.8258C73.6797 96.6424 73.7583 96.5115 73.9154 96.4381C74.0726 96.3648 74.2927 96.3019 74.5703 96.2547C74.5703 96.2547 74.6018 96.2076 74.6594 96.1342C74.717 96.0557 74.7904 95.9718 74.8742 95.8723C74.958 95.7727 75.0366 95.6784 75.1152 95.5841C75.1938 95.4898 75.2514 95.4165 75.2829 95.3693C75.4977 95.0759 75.7177 94.7668 75.9483 94.4472C76.1788 94.1276 76.4355 93.7609 76.7132 93.347V93.3575C76.8546 93.1479 76.9699 92.9803 77.059 92.844C77.148 92.7078 77.2371 92.5821 77.3157 92.4616C77.3995 92.3411 77.4833 92.2206 77.5724 92.0948C77.6615 91.9691 77.7715 91.8119 77.9025 91.6286C78.243 91.1518 78.5364 90.7536 78.7931 90.4235C79.0446 90.0935 79.2542 89.821 79.4218 89.601C79.6209 89.2971 79.8043 89.0037 79.9772 88.726C80.0558 88.6055 80.1291 88.485 80.1972 88.3593C80.2653 88.2388 80.3387 88.1183 80.4016 88.003C80.4644 87.8878 80.5273 87.783 80.5797 87.6782C80.6321 87.5787 80.6688 87.4896 80.7002 87.4215C81.3498 85.834 81.9052 85.0377 82.3715 85.0377C82.5706 85.0377 82.7382 85.0534 82.864 85.0848C82.9897 85.1162 83.084 85.1686 83.1521 85.242C83.2202 85.3153 83.2674 85.4149 83.2936 85.5301C83.3198 85.6506 83.3303 85.8026 83.3303 85.9807V86.3789C83.3303 86.4732 83.3303 86.557 83.3198 86.6304C83.3145 86.7037 83.3093 86.7718 83.3093 86.8452C83.3093 86.9185 83.2988 87.0128 83.2883 87.1333C83.4193 87.411 83.5451 87.6992 83.6708 87.9926C83.7965 88.286 83.9118 88.5793 84.0166 88.8675C84.0375 88.9304 84.0847 89.0718 84.1581 89.2814C84.2314 89.491 84.3205 89.7372 84.42 90.0201C84.5196 90.303 84.6296 90.6069 84.7396 90.9213C84.8496 91.2356 84.9544 91.5342 85.0487 91.8119C85.143 92.0896 85.2268 92.3306 85.3002 92.5349C85.3683 92.7393 85.4155 92.865 85.4416 92.9174C85.5098 93.2213 85.7141 93.7295 86.0389 94.4315C86.0808 94.5206 86.1175 94.5939 86.1489 94.662C86.1804 94.7249 86.2118 94.7983 86.2537 94.8664C86.2956 94.9397 86.348 95.0183 86.4109 95.1126C86.4738 95.2069 86.5628 95.3274 86.6729 95.4741C87.0501 95.9875 87.2387 96.3648 87.2387 96.6058L87.2439 96.5796ZM81.7742 92.4563C82.0152 92.3987 82.2562 92.3358 82.5077 92.2677C82.7539 92.2049 82.9845 92.1367 83.1993 92.0686C83.1102 91.8014 83.0211 91.5238 82.9268 91.2356C82.8325 90.9475 82.7382 90.6593 82.6387 90.3711C82.5391 90.083 82.4344 89.8053 82.3296 89.5381C82.2248 89.2657 82.1148 89.0194 82.0047 88.7994C81.5385 89.4333 81.0774 90.0987 80.6111 90.7955C80.1448 91.4923 79.6995 92.2049 79.2804 92.9331C79.4428 92.9174 79.6157 92.9069 79.7938 92.8964C79.9719 92.886 80.1186 92.8702 80.2287 92.8336C80.3754 92.7916 80.5063 92.7497 80.6268 92.7183C80.7421 92.6869 80.8626 92.6554 80.9779 92.6292C81.0931 92.603 81.2189 92.5768 81.3446 92.5454C81.4703 92.5192 81.617 92.4878 81.7795 92.4563H81.7742Z" fill="black"/>
<path d="M113.943 90.5388C113.943 90.785 113.849 91.0574 113.66 91.3666C113.472 91.6757 113.215 91.9953 112.895 92.3358C112.576 92.6763 112.199 93.0274 111.774 93.3889C111.35 93.7504 110.899 94.1171 110.423 94.4786C109.778 94.9659 109.097 95.4374 108.374 95.8827C107.651 96.3281 106.912 96.7262 106.168 97.072C105.419 97.4178 104.675 97.6955 103.936 97.8998C103.193 98.1041 102.49 98.2089 101.82 98.2089C101.013 98.2089 100.321 98.0937 99.7346 97.8684C99.1479 97.6431 98.6606 97.3183 98.2781 96.8991C97.8957 96.48 97.6075 95.9718 97.4242 95.385C97.2408 94.793 97.1465 94.1381 97.1465 93.4203C97.1465 92.8178 97.2146 92.2048 97.3561 91.5761C97.4975 90.9474 97.6914 90.324 97.9376 89.711C98.1838 89.098 98.4772 88.5007 98.8125 87.9296C99.1479 87.3586 99.5094 86.8294 99.8918 86.3474C100.117 86.0697 100.379 85.7764 100.688 85.4725C100.997 85.1686 101.322 84.87 101.663 84.5766C102.003 84.2832 102.349 84.0107 102.7 83.754C103.051 83.4973 103.381 83.2773 103.695 83.0886C103.921 82.9577 104.204 82.8057 104.544 82.6433C104.885 82.4809 105.246 82.3237 105.618 82.1823C105.99 82.0408 106.362 81.9203 106.724 81.8208C107.085 81.7212 107.4 81.6741 107.667 81.6741C108.144 81.6741 108.521 81.7055 108.798 81.7684C109.076 81.8312 109.328 81.9413 109.542 82.1037C109.647 82.1823 109.768 82.2975 109.899 82.4599C110.03 82.6224 110.155 82.7953 110.276 82.9839C110.396 83.1725 110.496 83.3611 110.58 83.5445C110.664 83.7278 110.705 83.885 110.705 84.0107C110.705 84.0946 110.679 84.2098 110.627 84.3513C110.575 84.4928 110.506 84.6499 110.423 84.8176C110.339 84.9852 110.244 85.1581 110.14 85.3363C110.035 85.5144 109.93 85.682 109.831 85.8445C109.731 86.0069 109.631 86.1483 109.542 86.2741C109.453 86.3998 109.38 86.4941 109.333 86.557C109.018 86.929 108.62 87.1123 108.149 87.1123C107.751 87.1123 107.441 87.0023 107.221 86.777C107.001 86.5517 106.891 86.2741 106.891 85.9388C106.891 85.834 106.949 85.6663 107.069 85.441C107.19 85.2158 107.384 84.9643 107.656 84.6918C107.787 84.5609 107.903 84.4299 108.002 84.2989C108.102 84.1679 108.175 84.0579 108.233 83.9584C108.06 83.8955 107.882 83.864 107.698 83.864C107.483 83.864 107.211 83.9164 106.886 84.0265C106.561 84.1365 106.221 84.2727 105.87 84.4351C105.519 84.5975 105.173 84.7809 104.838 84.9852C104.502 85.1896 104.219 85.3834 103.989 85.572C103.344 86.0959 102.737 86.688 102.166 87.3429C101.595 87.9978 101.118 88.7155 100.741 89.4909C100.594 89.8 100.452 90.1249 100.321 90.4759C100.19 90.8269 100.075 91.1779 99.9756 91.5394C99.8761 91.9009 99.8028 92.2625 99.7451 92.6187C99.6875 92.9802 99.6613 93.3208 99.6613 93.6404C99.6613 93.9966 99.698 94.3267 99.7766 94.6253C99.8551 94.924 99.9809 95.1859 100.159 95.4112C100.337 95.6365 100.568 95.8094 100.856 95.9351C101.144 96.0609 101.495 96.1237 101.914 96.1237C102.412 96.1237 102.931 96.0556 103.475 95.9194C104.02 95.7832 104.57 95.5998 105.131 95.364C105.692 95.1283 106.252 94.8611 106.813 94.5572C107.373 94.2533 107.918 93.9338 108.437 93.5984C108.956 93.2631 109.448 92.9226 109.914 92.582C110.381 92.2415 110.8 91.9167 111.177 91.6076C111.324 91.4871 111.486 91.3508 111.664 91.1884C111.842 91.026 112.026 90.8584 112.209 90.6855C112.393 90.5126 112.576 90.3344 112.754 90.1511C112.932 89.9677 113.095 89.8 113.241 89.6481C113.404 89.7319 113.529 89.8053 113.624 89.8682C113.718 89.931 113.786 89.9939 113.833 90.062C113.88 90.1301 113.907 90.1982 113.922 90.2768C113.938 90.3554 113.943 90.4392 113.943 90.5388Z" fill="black"/>
<path d="M125.914 96.5796C125.914 96.7158 125.888 96.8468 125.835 96.962C125.783 97.0825 125.715 97.1873 125.62 97.2764C125.526 97.3655 125.421 97.4388 125.296 97.4912C125.165 97.5436 125.028 97.575 124.882 97.575C124.746 97.575 124.609 97.5331 124.478 97.444C124.347 97.355 124.222 97.2449 124.096 97.1087C123.975 96.9725 123.855 96.8206 123.745 96.6477C123.635 96.4748 123.53 96.3019 123.441 96.129C123.352 95.9561 123.268 95.7885 123.2 95.6313C123.127 95.4741 123.069 95.3431 123.027 95.2383C122.964 95.0917 122.907 94.9554 122.849 94.8297C122.786 94.704 122.728 94.5415 122.66 94.3477C122.624 94.2377 122.592 94.1591 122.576 94.1014C122.556 94.0491 122.54 94.0071 122.529 93.9757C122.514 93.9443 122.503 93.9233 122.498 93.9024C122.487 93.8814 122.482 93.8552 122.472 93.8185C122.362 93.8657 122.246 93.8971 122.121 93.9024C121.995 93.9128 121.853 93.9128 121.702 93.9128C121.675 93.9128 121.628 93.9233 121.56 93.939C121.497 93.96 121.419 93.9809 121.335 94.0071C121.251 94.0333 121.162 94.0648 121.073 94.091C120.984 94.1224 120.895 94.1486 120.816 94.1695C120.554 94.2324 120.271 94.3005 119.967 94.3582C119.664 94.421 119.344 94.4787 119.009 94.5363C118.673 94.5939 118.338 94.6516 117.987 94.7092C117.641 94.7668 117.29 94.8245 116.944 94.8873C116.908 94.8926 116.871 94.903 116.845 94.9188C116.819 94.9345 116.782 94.9764 116.73 95.0445C116.682 95.1126 116.609 95.2174 116.51 95.3588C116.41 95.5003 116.274 95.7046 116.09 95.9666C115.881 96.2652 115.687 96.5272 115.504 96.7472C115.32 96.9673 115.142 97.1559 114.98 97.3183C114.823 97.4755 114.655 97.596 114.477 97.6798C114.299 97.7636 114.115 97.8003 113.927 97.8003C113.675 97.8003 113.45 97.7689 113.256 97.706C113.057 97.6431 112.894 97.5645 112.758 97.465C112.622 97.3655 112.523 97.2607 112.454 97.1454C112.386 97.0301 112.35 96.9254 112.35 96.8258C112.35 96.6424 112.428 96.5115 112.585 96.4381C112.743 96.3648 112.963 96.3019 113.24 96.2547C113.24 96.2547 113.272 96.2076 113.329 96.1342C113.387 96.0557 113.46 95.9718 113.544 95.8723C113.628 95.7727 113.707 95.6784 113.785 95.5841C113.864 95.4898 113.921 95.4165 113.953 95.3693C114.168 95.0759 114.388 94.7668 114.618 94.4472C114.849 94.1276 115.105 93.7609 115.383 93.347V93.3575C115.525 93.1479 115.64 92.9803 115.729 92.844C115.818 92.7078 115.907 92.5821 115.986 92.4616C116.069 92.3411 116.153 92.2206 116.242 92.0948C116.331 91.9691 116.441 91.8119 116.572 91.6286C116.913 91.1518 117.206 90.7536 117.463 90.4235C117.715 90.0935 117.924 89.821 118.092 89.601C118.291 89.2971 118.474 89.0037 118.647 88.726C118.726 88.6055 118.799 88.485 118.867 88.3593C118.935 88.2388 119.009 88.1183 119.071 88.003C119.134 87.8878 119.197 87.783 119.25 87.6782C119.302 87.5787 119.339 87.4896 119.37 87.4215C120.02 85.834 120.575 85.0377 121.041 85.0377C121.24 85.0377 121.408 85.0534 121.534 85.0848C121.66 85.1162 121.754 85.1686 121.822 85.242C121.89 85.3153 121.937 85.4149 121.964 85.5301C121.99 85.6506 122 85.8026 122 85.9807V86.3789C122 86.4732 122 86.557 121.99 86.6304C121.984 86.7037 121.979 86.7718 121.979 86.8452C121.979 86.9185 121.969 87.0128 121.958 87.1333C122.089 87.411 122.215 87.6992 122.341 87.9926C122.466 88.286 122.582 88.5793 122.687 88.8675C122.707 88.9304 122.755 89.0718 122.828 89.2814C122.901 89.491 122.99 89.7372 123.09 90.0201C123.189 90.303 123.3 90.6069 123.41 90.9213C123.52 91.2356 123.624 91.5342 123.719 91.8119C123.813 92.0896 123.897 92.3306 123.97 92.5349C124.038 92.7393 124.085 92.865 124.112 92.9174C124.18 93.2213 124.384 93.7295 124.709 94.4315C124.751 94.5206 124.787 94.5939 124.819 94.662C124.85 94.7249 124.882 94.7983 124.924 94.8664C124.966 94.9397 125.018 95.0183 125.081 95.1126C125.144 95.2069 125.233 95.3274 125.343 95.4741C125.72 95.9875 125.909 96.3648 125.909 96.6058L125.914 96.5796ZM120.444 92.4563C120.685 92.3987 120.926 92.3358 121.178 92.2677C121.424 92.2049 121.654 92.1367 121.869 92.0686C121.78 91.8014 121.691 91.5238 121.597 91.2356C121.502 90.9475 121.408 90.6593 121.309 90.3711C121.209 90.083 121.104 89.8053 120.999 89.5381C120.895 89.2657 120.785 89.0194 120.675 88.7994C120.208 89.4333 119.747 90.0987 119.281 90.7955C118.815 91.4923 118.369 92.2049 117.95 92.9331C118.113 92.9174 118.286 92.9069 118.464 92.8964C118.642 92.886 118.789 92.8702 118.899 92.8336C119.045 92.7916 119.176 92.7497 119.297 92.7183C119.412 92.6869 119.533 92.6554 119.648 92.6292C119.763 92.603 119.889 92.5768 120.015 92.5454C120.14 92.5192 120.287 92.4878 120.449 92.4563H120.444Z" fill="black"/>
<path d="M136.561 87.1176C136.561 87.1962 136.55 87.2853 136.535 87.3953C136.514 87.5053 136.488 87.6154 136.451 87.7359C136.414 87.8511 136.372 87.9664 136.325 88.0712C136.278 88.1759 136.226 88.265 136.168 88.3279H136.178C136.006 88.5375 135.592 88.637 134.942 88.637C134.942 88.4012 134.932 88.1969 134.916 88.0292C134.895 87.8564 134.863 87.7201 134.822 87.6154C134.785 87.5263 134.717 87.4529 134.617 87.3953C134.518 87.3377 134.408 87.2853 134.287 87.2486C134.167 87.2119 134.041 87.1805 133.915 87.1648C133.789 87.1438 133.679 87.1386 133.59 87.1386C133.355 87.1386 133.124 87.1438 132.904 87.1543C132.679 87.1648 132.459 87.1857 132.244 87.2172C132.029 87.2486 131.809 87.2958 131.589 87.3586C131.369 87.4215 131.144 87.4949 130.913 87.5892C130.751 87.652 130.578 87.7359 130.394 87.8354C130.211 87.9349 130.043 88.045 129.881 88.1655C129.724 88.286 129.588 88.4222 129.478 88.5689C129.368 88.7156 129.294 88.8675 129.268 89.0299L129.278 89.0142C129.278 89.1452 129.32 89.2919 129.409 89.4543C129.498 89.6167 129.614 89.7739 129.766 89.9311C129.918 90.0882 130.091 90.2297 130.284 90.3554C130.483 90.4864 130.688 90.5755 130.908 90.6384C130.924 90.6436 130.971 90.6593 131.049 90.6855C131.128 90.7117 131.217 90.7431 131.327 90.7798C131.437 90.8165 131.552 90.8532 131.673 90.9003C131.793 90.9422 131.909 90.9841 132.019 91.0208C132.123 91.0575 132.218 91.0837 132.291 91.1099C132.364 91.1361 132.406 91.1518 132.417 91.157C133.685 91.4819 134.622 91.8643 135.235 92.3201C135.848 92.7759 136.152 93.3313 136.152 93.9914C136.152 94.2062 136.105 94.4158 136.011 94.6254C135.916 94.8349 135.801 95.034 135.66 95.2279C135.518 95.4217 135.361 95.5946 135.199 95.757C135.031 95.9195 134.874 96.0557 134.727 96.1605L134.738 96.15C134.581 96.2757 134.402 96.4015 134.203 96.5324C134.004 96.6634 133.789 96.7944 133.559 96.9149C133.328 97.0406 133.093 97.1559 132.846 97.2659C132.6 97.3759 132.349 97.4703 132.092 97.5541C131.851 97.6327 131.599 97.7008 131.332 97.7689C131.065 97.837 130.803 97.8946 130.541 97.947C130.279 97.9994 130.028 98.0361 129.781 98.0623C129.54 98.0885 129.32 98.1042 129.121 98.1042C129.016 98.1042 128.891 98.0937 128.739 98.0675C128.587 98.0413 128.43 98.0099 128.262 97.9627C128.094 97.9208 127.927 97.8684 127.764 97.8056C127.597 97.7427 127.45 97.6746 127.319 97.6012C127.188 97.5226 127.083 97.4441 126.999 97.355C126.916 97.2659 126.879 97.1769 126.879 97.0773C126.879 96.9882 126.895 96.8835 126.926 96.7577C126.957 96.632 127.005 96.5115 127.068 96.391C127.13 96.2757 127.204 96.1709 127.288 96.0871C127.371 96.0033 127.466 95.9614 127.56 95.9614C127.696 95.9614 127.822 95.9771 127.942 96.0085C128.063 96.04 128.199 96.0766 128.346 96.1185C128.498 96.1605 128.671 96.1971 128.87 96.2338C129.069 96.2705 129.315 96.2862 129.609 96.2862C129.902 96.2862 130.211 96.2548 130.531 96.1919C130.85 96.129 131.165 96.0452 131.474 95.9404C131.783 95.8356 132.081 95.7151 132.364 95.5737C132.647 95.4375 132.904 95.296 133.134 95.1493C133.234 95.0864 133.339 95.0078 133.459 94.924C133.575 94.8402 133.685 94.7459 133.784 94.6463C133.884 94.5468 133.968 94.442 134.036 94.332C134.104 94.222 134.14 94.1119 134.14 93.9967C134.14 93.8657 134.041 93.74 133.847 93.6195V93.6299C133.559 93.457 133.271 93.3208 132.988 93.2265C132.705 93.1322 132.453 93.0589 132.244 92.996C131.641 92.8441 130.913 92.6031 130.049 92.2677H130.059C129.698 92.1263 129.352 91.9429 129.011 91.7176C128.671 91.4923 128.383 91.2566 128.136 91.0156C127.591 90.4078 127.319 89.711 127.319 88.9199C127.319 88.6108 127.408 88.3069 127.581 88.0135C127.754 87.7201 127.995 87.4425 128.293 87.1805C128.592 86.9238 128.943 86.6828 129.336 86.4627C129.729 86.2427 130.153 86.0593 130.599 85.9021C131.044 85.745 131.505 85.6245 131.971 85.5354C132.438 85.4463 132.888 85.4044 133.328 85.4044C133.465 85.4044 133.637 85.4149 133.842 85.4306C134.046 85.4516 134.256 85.4778 134.47 85.5144C134.685 85.5511 134.89 85.593 135.089 85.6454C135.288 85.6978 135.44 85.7554 135.555 85.8236H135.545C135.859 85.9912 136.11 86.1955 136.294 86.4313C136.477 86.6671 136.566 86.8976 136.566 87.1176H136.561Z" fill="black"/>
<path d="M151.072 96.5796C151.072 96.7158 151.046 96.8468 150.993 96.962C150.941 97.0825 150.873 97.1873 150.779 97.2764C150.684 97.3655 150.58 97.4388 150.454 97.4912C150.323 97.5436 150.187 97.575 150.04 97.575C149.904 97.575 149.767 97.5331 149.637 97.444C149.506 97.355 149.38 97.2449 149.254 97.1087C149.134 96.9725 149.013 96.8206 148.903 96.6477C148.793 96.4748 148.688 96.3019 148.599 96.129C148.51 95.9561 148.426 95.7885 148.358 95.6313C148.285 95.4741 148.227 95.3431 148.185 95.2383C148.122 95.0917 148.065 94.9554 148.007 94.8297C147.944 94.704 147.887 94.5415 147.819 94.3477C147.782 94.2377 147.75 94.1591 147.735 94.1014C147.714 94.0491 147.698 94.0071 147.688 93.9757C147.672 93.9443 147.661 93.9233 147.656 93.9024C147.646 93.8814 147.64 93.8552 147.63 93.8185C147.52 93.8657 147.405 93.8971 147.279 93.9024C147.153 93.9128 147.012 93.9128 146.86 93.9128C146.834 93.9128 146.786 93.9233 146.718 93.939C146.655 93.96 146.577 93.9809 146.493 94.0071C146.409 94.0333 146.32 94.0648 146.231 94.091C146.142 94.1224 146.053 94.1486 145.974 94.1695C145.712 94.2324 145.429 94.3005 145.126 94.3582C144.822 94.421 144.502 94.4787 144.167 94.5363C143.832 94.5939 143.496 94.6516 143.145 94.7092C142.799 94.7668 142.448 94.8245 142.103 94.8873C142.066 94.8926 142.029 94.903 142.003 94.9188C141.977 94.9345 141.94 94.9764 141.888 95.0445C141.841 95.1126 141.767 95.2174 141.668 95.3588C141.568 95.5003 141.432 95.7046 141.249 95.9666C141.039 96.2652 140.845 96.5272 140.662 96.7472C140.478 96.9673 140.3 97.1559 140.138 97.3183C139.981 97.4755 139.813 97.596 139.635 97.6798C139.457 97.7636 139.273 97.8003 139.085 97.8003C138.833 97.8003 138.608 97.7689 138.414 97.706C138.215 97.6431 138.053 97.5645 137.916 97.465C137.78 97.3655 137.681 97.2607 137.613 97.1454C137.544 97.0301 137.508 96.9254 137.508 96.8258C137.508 96.6424 137.586 96.5115 137.744 96.4381C137.901 96.3648 138.121 96.3019 138.398 96.2547C138.398 96.2547 138.43 96.2076 138.488 96.1342C138.545 96.0557 138.619 95.9718 138.702 95.8723C138.786 95.7727 138.865 95.6784 138.943 95.5841C139.022 95.4898 139.08 95.4165 139.111 95.3693C139.326 95.0759 139.546 94.7668 139.776 94.4472C140.007 94.1276 140.264 93.7609 140.541 93.347V93.3575C140.683 93.1479 140.798 92.9803 140.887 92.844C140.976 92.7078 141.065 92.5821 141.144 92.4616C141.228 92.3411 141.311 92.2206 141.401 92.0948C141.49 91.9691 141.6 91.8119 141.731 91.6286C142.071 91.1518 142.365 90.7536 142.621 90.4235C142.873 90.0935 143.082 89.821 143.25 89.601C143.449 89.2971 143.632 89.0037 143.805 88.726C143.884 88.6055 143.957 88.485 144.025 88.3593C144.093 88.2388 144.167 88.1183 144.23 88.003C144.293 87.8878 144.355 87.783 144.408 87.6782C144.46 87.5787 144.497 87.4896 144.528 87.4215C145.178 85.834 145.733 85.0377 146.2 85.0377C146.399 85.0377 146.566 85.0534 146.692 85.0848C146.818 85.1162 146.912 85.1686 146.98 85.242C147.048 85.3153 147.096 85.4149 147.122 85.5301C147.148 85.6506 147.158 85.8026 147.158 85.9807V86.3789C147.158 86.4732 147.158 86.557 147.148 86.6304C147.143 86.7037 147.137 86.7718 147.137 86.8452C147.137 86.9185 147.127 87.0128 147.116 87.1333C147.247 87.411 147.373 87.6992 147.499 87.9926C147.625 88.286 147.74 88.5793 147.845 88.8675C147.866 88.9304 147.913 89.0718 147.986 89.2814C148.06 89.491 148.149 89.7372 148.248 90.0201C148.348 90.303 148.458 90.6069 148.568 90.9213C148.678 91.2356 148.783 91.5342 148.877 91.8119C148.971 92.0896 149.055 92.3306 149.128 92.5349C149.196 92.7393 149.244 92.865 149.27 92.9174C149.338 93.2213 149.542 93.7295 149.867 94.4315C149.909 94.5206 149.946 94.5939 149.977 94.662C150.009 94.7249 150.04 94.7983 150.082 94.8664C150.124 94.9397 150.176 95.0183 150.239 95.1126C150.302 95.2069 150.391 95.3274 150.501 95.4741C150.878 95.9875 151.067 96.3648 151.067 96.6058L151.072 96.5796ZM145.608 92.4563C145.849 92.3987 146.09 92.3358 146.341 92.2677C146.587 92.2049 146.818 92.1367 147.033 92.0686C146.944 91.8014 146.855 91.5238 146.76 91.2356C146.666 90.9475 146.572 90.6593 146.472 90.3711C146.373 90.083 146.268 89.8053 146.163 89.5381C146.058 89.2657 145.948 89.0194 145.838 88.7994C145.372 89.4333 144.911 90.0987 144.445 90.7955C143.978 91.4923 143.533 92.2049 143.114 92.9331C143.276 92.9174 143.449 92.9069 143.627 92.8964C143.805 92.886 143.952 92.8702 144.062 92.8336C144.209 92.7916 144.34 92.7497 144.46 92.7183C144.575 92.6869 144.696 92.6554 144.811 92.6292C144.926 92.603 145.052 92.5768 145.178 92.5454C145.304 92.5192 145.45 92.4878 145.613 92.4563H145.608Z" fill="black"/>
<path d="M10.6984 115.441H7.82734L4.18611 110.411C3.91891 110.421 3.69886 110.427 3.52597 110.427C3.45786 110.427 3.38451 110.427 3.30592 110.427C3.22734 110.427 3.14351 110.421 3.05968 110.416V113.539C3.05968 114.215 3.13303 114.634 3.27973 114.801C3.47882 115.032 3.78269 115.152 4.18087 115.152H4.6V115.446H0V115.152H0.403417C0.859226 115.152 1.18406 115.006 1.3779 114.707C1.48793 114.545 1.54556 114.157 1.54556 113.544V106.597C1.54556 105.921 1.47221 105.502 1.32551 105.334C1.12118 105.104 0.812073 104.983 0.403417 104.983H0V104.69H3.91891C5.06105 104.69 5.90456 104.774 6.44419 104.941C6.98383 105.109 7.44488 105.413 7.8221 105.863C8.19932 106.309 8.38793 106.843 8.38793 107.461C8.38793 108.121 8.17312 108.698 7.74351 109.18C7.3139 109.662 6.64328 110.008 5.74214 110.212L7.96356 113.298C8.47176 114.005 8.90661 114.477 9.27335 114.707C9.64009 114.938 10.1116 115.09 10.6984 115.152V115.446V115.441ZM3.05968 109.913C3.15923 109.913 3.24829 109.913 3.32164 109.913C3.39499 109.913 3.45786 109.913 3.50501 109.913C4.53189 109.913 5.30205 109.693 5.82597 109.248C6.34989 108.803 6.60661 108.237 6.60661 107.55C6.60661 106.864 6.39704 106.335 5.97791 105.911C5.55877 105.491 5.00342 105.282 4.30661 105.282C4.00273 105.282 3.5836 105.334 3.05968 105.434V109.908V109.913Z" fill="#0582C1"/>
<path d="M12.9819 110.914C12.9819 111.993 13.2386 112.837 13.7678 113.45C14.2969 114.063 14.9152 114.372 15.6329 114.372C16.1097 114.372 16.5236 114.241 16.8746 113.979C17.2256 113.717 17.519 113.272 17.76 112.632L18.0063 112.79C17.8962 113.513 17.5714 114.173 17.037 114.77C16.5026 115.367 15.832 115.661 15.0304 115.661C14.1555 115.661 13.4115 115.32 12.788 114.639C12.1646 113.958 11.8555 113.046 11.8555 111.899C11.8555 110.657 12.1751 109.688 12.809 108.991C13.4482 108.294 14.2445 107.949 15.2085 107.949C16.0206 107.949 16.6912 108.216 17.2152 108.755C17.7391 109.29 18.001 110.008 18.001 110.909H12.9819V110.914ZM12.9819 110.453H16.3454C16.3193 109.987 16.2616 109.662 16.1778 109.468C16.0468 109.175 15.8477 108.939 15.5858 108.771C15.3238 108.604 15.0514 108.52 14.7632 108.52C14.3231 108.52 13.9302 108.693 13.5844 109.033C13.2386 109.374 13.0343 109.85 12.9767 110.458L12.9819 110.453Z" fill="#0582C1"/>
<path d="M24.3626 107.964V110.437H24.1006C23.9015 109.662 23.6396 109.133 23.3252 108.85C23.0109 108.567 22.6127 108.431 22.1254 108.431C21.7534 108.431 21.4548 108.53 21.2295 108.724C21.0042 108.918 20.889 109.138 20.889 109.374C20.889 109.672 20.9728 109.924 21.1405 110.133C21.3029 110.348 21.6382 110.579 22.1411 110.825L23.299 111.391C24.373 111.915 24.9074 112.606 24.9074 113.46C24.9074 114.12 24.656 114.655 24.1582 115.058C23.6605 115.462 23.0999 115.666 22.4817 115.666C22.0364 115.666 21.5282 115.587 20.9571 115.43C20.7842 115.378 20.6375 115.352 20.5275 115.352C20.407 115.352 20.3127 115.42 20.2446 115.556H19.9826V112.962H20.2446C20.3913 113.701 20.6742 114.262 21.0933 114.634C21.5124 115.006 21.9787 115.2 22.4974 115.2C22.8642 115.2 23.1575 115.09 23.3881 114.88C23.6186 114.665 23.7339 114.408 23.7339 114.105C23.7339 113.738 23.6029 113.434 23.3514 113.183C23.0947 112.936 22.5812 112.622 21.8163 112.239C21.0514 111.857 20.5484 111.516 20.3074 111.207C20.0664 110.903 19.9512 110.526 19.9512 110.065C19.9512 109.468 20.1555 108.97 20.5642 108.567C20.9728 108.163 21.502 107.964 22.1569 107.964C22.4398 107.964 22.7908 108.027 23.1942 108.148C23.4614 108.226 23.6448 108.268 23.7339 108.268C23.8177 108.268 23.8858 108.247 23.9329 108.211C23.9801 108.174 24.0377 108.09 24.1006 107.964H24.3626Z" fill="#0582C1"/>
<path d="M29.1927 107.964V113.801C29.1927 114.257 29.2242 114.56 29.2923 114.707C29.3604 114.859 29.4547 114.969 29.5857 115.042C29.7166 115.116 29.9524 115.152 30.293 115.152V115.435H26.7617V115.152C27.118 115.152 27.3538 115.116 27.4743 115.048C27.5948 114.98 27.6943 114.864 27.7624 114.707C27.8358 114.55 27.8672 114.246 27.8672 113.796V110.998C27.8672 110.212 27.841 109.698 27.7939 109.468C27.7572 109.3 27.6996 109.18 27.621 109.117C27.5424 109.049 27.4324 109.017 27.2961 109.017C27.1494 109.017 26.9661 109.059 26.7565 109.138L26.6465 108.855L28.8365 107.964H29.1875H29.1927ZM28.5378 104.166C28.7579 104.166 28.9465 104.244 29.1037 104.402C29.2608 104.559 29.3394 104.747 29.3394 104.967C29.3394 105.188 29.2608 105.381 29.1037 105.539C28.9465 105.696 28.7579 105.78 28.5378 105.78C28.3178 105.78 28.1239 105.701 27.9668 105.539C27.8096 105.376 27.7258 105.188 27.7258 104.967C27.7258 104.747 27.8043 104.559 27.9615 104.402C28.1187 104.244 28.3073 104.166 28.5378 104.166Z" fill="#0582C1"/>
<path d="M37.0307 114.623C36.6744 114.995 36.3286 115.257 35.9933 115.42C35.658 115.582 35.2913 115.661 34.8984 115.661C34.1072 115.661 33.4104 115.331 32.8184 114.665C32.2264 114 31.9277 113.151 31.9277 112.108C31.9277 111.066 32.2578 110.112 32.9127 109.248C33.5676 108.383 34.4111 107.954 35.4432 107.954C36.0824 107.954 36.6116 108.158 37.0307 108.567V107.226C37.0307 106.398 37.0097 105.884 36.9731 105.696C36.9312 105.507 36.8735 105.376 36.7845 105.308C36.6954 105.24 36.5958 105.203 36.4649 105.203C36.3286 105.203 36.1453 105.245 35.92 105.329L35.8152 105.051L37.979 104.161H38.3353V112.559C38.3353 113.408 38.3562 113.932 38.3929 114.115C38.4348 114.304 38.4977 114.435 38.5815 114.508C38.6706 114.581 38.7701 114.618 38.8854 114.618C39.0268 114.618 39.2207 114.571 39.4564 114.482L39.5455 114.76L37.387 115.655H37.0202V114.618L37.0307 114.623ZM37.0307 114.068V110.327C36.9993 109.966 36.905 109.641 36.7478 109.342C36.5906 109.049 36.381 108.824 36.1191 108.672C35.8571 108.52 35.6004 108.446 35.3542 108.446C34.8879 108.446 34.474 108.656 34.1072 109.075C33.6252 109.625 33.3842 110.427 33.3842 111.485C33.3842 112.543 33.6148 113.371 34.081 113.937C34.5473 114.503 35.066 114.791 35.6371 114.791C36.1191 114.791 36.5854 114.55 37.0307 114.068Z" fill="#0582C1"/>
<path d="M41.9389 110.914C41.9389 111.993 42.1956 112.837 42.7248 113.45C43.254 114.063 43.8722 114.372 44.5899 114.372C45.0667 114.372 45.4806 114.241 45.8316 113.979C46.1827 113.717 46.4761 113.272 46.7171 112.632L46.9633 112.79C46.8533 113.513 46.5284 114.173 45.9941 114.77C45.4597 115.367 44.789 115.661 43.9874 115.661C43.1125 115.661 42.3685 115.32 41.7451 114.639C41.1216 113.958 40.8125 113.046 40.8125 111.899C40.8125 110.657 41.1321 109.688 41.766 108.991C42.4052 108.294 43.2016 107.949 44.1656 107.949C44.9777 107.949 45.6483 108.216 46.1722 108.755C46.6961 109.29 46.9581 110.008 46.9581 110.909H41.9389V110.914ZM41.9389 110.453H45.3025C45.2763 109.987 45.2187 109.662 45.1348 109.468C45.0038 109.175 44.8048 108.939 44.5428 108.771C44.2808 108.604 44.0084 108.52 43.7202 108.52C43.2802 108.52 42.8872 108.693 42.5414 109.033C42.1956 109.374 41.9913 109.85 41.9337 110.458L41.9389 110.453Z" fill="#0582C1"/>
<path d="M50.7408 109.499C51.5896 108.472 52.4017 107.959 53.1771 107.959C53.5752 107.959 53.9158 108.059 54.1987 108.258C54.4816 108.457 54.7121 108.782 54.8798 109.237C54.9951 109.557 55.0527 110.039 55.0527 110.699V113.801C55.0527 114.262 55.0894 114.571 55.1627 114.739C55.2203 114.87 55.3146 114.974 55.4456 115.048C55.5766 115.121 55.8124 115.158 56.1634 115.158V115.441H52.5693V115.158H52.7213C53.0618 115.158 53.2976 115.105 53.4285 115.006C53.5648 114.901 53.6591 114.749 53.7115 114.55C53.7324 114.471 53.7429 114.225 53.7429 113.806V110.83C53.7429 110.17 53.6591 109.688 53.4862 109.389C53.3133 109.091 53.0251 108.939 52.6165 108.939C51.9878 108.939 51.3591 109.285 50.7356 109.971V113.801C50.7356 114.293 50.767 114.597 50.8247 114.712C50.898 114.864 50.9976 114.98 51.1285 115.048C51.2595 115.121 51.5215 115.152 51.9197 115.152V115.435H48.3256V115.152H48.4828C48.8547 115.152 49.101 115.058 49.232 114.87C49.3629 114.681 49.4258 114.325 49.4258 113.795V111.097C49.4258 110.222 49.4049 109.693 49.3682 109.505C49.3263 109.316 49.2686 109.185 49.1848 109.117C49.101 109.049 48.991 109.012 48.8547 109.012C48.708 109.012 48.5299 109.054 48.3256 109.133L48.2051 108.85L50.3951 107.959H50.7356V109.499H50.7408Z" fill="#0582C1"/>
<path d="M63.6148 112.68C63.421 113.638 63.0385 114.372 62.4675 114.891C61.8964 115.404 61.2624 115.666 60.5709 115.666C59.7483 115.666 59.0253 115.32 58.4123 114.629C57.7993 113.937 57.4902 112.999 57.4902 111.82C57.4902 110.642 57.8308 109.751 58.5119 109.038C59.193 108.326 60.005 107.97 60.9586 107.97C61.6711 107.97 62.2579 108.158 62.7189 108.535C63.18 108.913 63.4105 109.306 63.4105 109.714C63.4105 109.913 63.3476 110.076 63.2167 110.201C63.0857 110.327 62.9075 110.39 62.6718 110.39C62.3627 110.39 62.1269 110.291 61.9645 110.086C61.8754 109.976 61.8126 109.761 61.7864 109.452C61.7602 109.143 61.6501 108.902 61.4668 108.74C61.2834 108.583 61.0267 108.504 60.6966 108.504C60.1675 108.504 59.7431 108.698 59.4183 109.091C58.9886 109.609 58.7738 110.296 58.7738 111.144C58.7738 111.993 58.9886 112.779 59.413 113.439C59.8374 114.105 60.4137 114.435 61.1367 114.435C61.6554 114.435 62.1217 114.257 62.5303 113.906C62.8185 113.665 63.1014 113.219 63.3791 112.58L63.6096 112.69L63.6148 112.68Z" fill="#0582C1"/>
<path d="M67.8587 107.964V113.801C67.8587 114.257 67.8902 114.56 67.9583 114.707C68.0264 114.859 68.1207 114.969 68.2517 115.042C68.3827 115.116 68.6184 115.152 68.959 115.152V115.435H65.4278V115.152C65.784 115.152 66.0198 115.116 66.1403 115.048C66.2608 114.98 66.3603 114.864 66.4284 114.707C66.5018 114.55 66.5332 114.246 66.5332 113.796V110.998C66.5332 110.212 66.507 109.698 66.4599 109.468C66.4232 109.3 66.3656 109.18 66.287 109.117C66.2084 109.049 66.0984 109.017 65.9622 109.017C65.8155 109.017 65.6321 109.059 65.4225 109.138L65.3125 108.855L67.5025 107.964H67.8535H67.8587ZM67.1986 104.166C67.4186 104.166 67.6073 104.244 67.7644 104.402C67.9216 104.559 68.0002 104.747 68.0002 104.967C68.0002 105.188 67.9216 105.381 67.7644 105.539C67.6073 105.696 67.4186 105.78 67.1986 105.78C66.9786 105.78 66.7847 105.701 66.6275 105.539C66.4704 105.376 66.3865 105.188 66.3865 104.967C66.3865 104.747 66.4651 104.559 66.6223 104.402C66.7795 104.244 66.9681 104.166 67.1986 104.166Z" fill="#0582C1"/>
<path d="M74.6794 114.393C73.9354 114.969 73.4639 115.304 73.2753 115.393C72.9924 115.524 72.6885 115.593 72.3637 115.593C71.8607 115.593 71.4468 115.42 71.122 115.079C70.7972 114.733 70.6348 114.283 70.6348 113.722C70.6348 113.366 70.7134 113.062 70.8705 112.8C71.0853 112.439 71.4625 112.103 72.0022 111.784C72.5418 111.464 73.4325 111.082 74.6794 110.626V110.343C74.6794 109.62 74.5642 109.122 74.3336 108.85C74.1031 108.577 73.7678 108.446 73.3329 108.446C72.9976 108.446 72.7357 108.535 72.5418 108.713C72.3427 108.892 72.238 109.101 72.238 109.332L72.2537 109.793C72.2537 110.034 72.1908 110.222 72.0651 110.353C71.9393 110.484 71.7769 110.552 71.5778 110.552C71.3787 110.552 71.2215 110.484 71.0958 110.348C70.9701 110.212 70.9072 110.023 70.9072 109.782C70.9072 109.326 71.1377 108.913 71.604 108.53C72.0703 108.148 72.72 107.959 73.5635 107.959C74.2079 107.959 74.737 108.069 75.1509 108.284C75.4653 108.446 75.6958 108.703 75.8425 109.054C75.9368 109.279 75.984 109.746 75.984 110.448V112.915C75.984 113.607 75.9997 114.031 76.0259 114.188C76.0521 114.346 76.094 114.45 76.1569 114.503C76.2197 114.555 76.2878 114.581 76.3664 114.581C76.4503 114.581 76.5236 114.56 76.5865 114.524C76.6965 114.456 76.9113 114.262 77.2309 113.942V114.388C76.6389 115.179 76.073 115.577 75.5334 115.577C75.2767 115.577 75.0671 115.488 74.9152 115.31C74.7632 115.131 74.6846 114.822 74.6742 114.388L74.6794 114.393ZM74.6794 113.879V111.113C73.8831 111.433 73.3644 111.653 73.1338 111.789C72.7147 112.019 72.4161 112.266 72.238 112.517C72.0598 112.769 71.9708 113.046 71.9708 113.35C71.9708 113.733 72.086 114.047 72.3113 114.298C72.5366 114.55 72.7985 114.676 73.0972 114.676C73.5006 114.676 74.0298 114.414 74.6847 113.885L74.6794 113.879Z" fill="#0582C1"/>
<path d="M80.9661 104.166V113.801C80.9661 114.257 80.9975 114.555 81.0656 114.702C81.1337 114.849 81.2333 114.964 81.3695 115.037C81.5057 115.116 81.7624 115.152 82.1396 115.152V115.435H78.577V115.152C78.9123 115.152 79.1376 115.116 79.2581 115.048C79.3786 114.98 79.4729 114.864 79.541 114.707C79.6091 114.55 79.6458 114.246 79.6458 113.795V107.199C79.6458 106.382 79.6248 105.874 79.5882 105.69C79.5515 105.507 79.4939 105.376 79.41 105.308C79.3262 105.24 79.2214 105.203 79.0957 105.203C78.9595 105.203 78.7813 105.245 78.5718 105.329L78.4355 105.051L80.5993 104.161H80.9556L80.9661 104.166Z" fill="#0582C1"/>
<path d="M87.9195 108.897L90.1566 107.996H90.4605V109.693C90.8377 109.054 91.2149 108.603 91.5922 108.347C91.9694 108.09 92.3676 107.964 92.7867 107.964C93.5149 107.964 94.1227 108.247 94.6099 108.818C95.2072 109.515 95.5058 110.427 95.5058 111.548C95.5058 112.8 95.1443 113.837 94.4265 114.655C93.8345 115.325 93.0906 115.661 92.1894 115.661C91.7965 115.661 91.4612 115.603 91.173 115.493C90.9635 115.414 90.7224 115.257 90.4605 115.016V117.227C90.4605 117.725 90.4919 118.039 90.5496 118.175C90.6124 118.312 90.7172 118.416 90.8691 118.495C91.0211 118.574 91.2935 118.616 91.6917 118.616V118.909H87.8828V118.616H88.0819C88.3701 118.616 88.6215 118.563 88.8259 118.448C88.9254 118.39 89.004 118.296 89.0616 118.165C89.1193 118.034 89.1454 117.704 89.1454 117.18V110.311C89.1454 109.84 89.1245 109.541 89.0826 109.416C89.0407 109.29 88.9726 109.195 88.8783 109.133C88.7839 109.07 88.6582 109.038 88.501 109.038C88.3753 109.038 88.2129 109.075 88.019 109.148L87.9247 108.897H87.9195ZM90.4552 110.16V112.873C90.4552 113.46 90.4814 113.848 90.5286 114.031C90.6019 114.335 90.7853 114.608 91.0735 114.838C91.3616 115.069 91.7231 115.189 92.1632 115.189C92.6924 115.189 93.122 114.985 93.4468 114.571C93.8764 114.031 94.0912 113.272 94.0912 112.297C94.0912 111.186 93.8502 110.332 93.363 109.735C93.0224 109.321 92.6243 109.117 92.158 109.117C91.9065 109.117 91.655 109.18 91.4035 109.306C91.2149 109.4 90.9006 109.688 90.4605 110.16H90.4552Z" fill="#0582C1"/>
<path d="M101.373 114.393C100.629 114.969 100.157 115.304 99.9687 115.393C99.6858 115.524 99.3819 115.593 99.0571 115.593C98.5541 115.593 98.1402 115.42 97.8154 115.079C97.4905 114.733 97.3281 114.283 97.3281 113.722C97.3281 113.366 97.4067 113.062 97.5639 112.8C97.7787 112.439 98.1559 112.103 98.6956 111.784C99.2352 111.464 100.126 111.082 101.373 110.626V110.343C101.373 109.62 101.258 109.122 101.027 108.85C100.796 108.577 100.461 108.446 100.026 108.446C99.691 108.446 99.429 108.535 99.2352 108.713C99.0361 108.892 98.9313 109.101 98.9313 109.332L98.947 109.793C98.947 110.034 98.8842 110.222 98.7584 110.353C98.6327 110.484 98.4703 110.552 98.2712 110.552C98.0721 110.552 97.9149 110.484 97.7892 110.348C97.6634 110.212 97.6006 110.023 97.6006 109.782C97.6006 109.326 97.8311 108.913 98.2974 108.53C98.7637 108.148 99.4133 107.959 100.257 107.959C100.901 107.959 101.43 108.069 101.844 108.284C102.159 108.446 102.389 108.703 102.536 109.054C102.63 109.279 102.677 109.746 102.677 110.448V112.915C102.677 113.607 102.693 114.031 102.719 114.188C102.745 114.346 102.787 114.45 102.85 114.503C102.913 114.555 102.981 114.581 103.06 114.581C103.144 114.581 103.217 114.56 103.28 114.524C103.39 114.456 103.605 114.262 103.924 113.942V114.388C103.332 115.179 102.766 115.577 102.227 115.577C101.97 115.577 101.76 115.488 101.609 115.31C101.457 115.131 101.378 114.822 101.368 114.388L101.373 114.393ZM101.373 113.879V111.113C100.576 111.433 100.058 111.653 99.8272 111.789C99.4081 112.019 99.1094 112.266 98.9313 112.517C98.7532 112.769 98.6641 113.046 98.6641 113.35C98.6641 113.733 98.7794 114.047 99.0047 114.298C99.2299 114.55 99.4919 114.676 99.7905 114.676C100.194 114.676 100.723 114.414 101.378 113.885L101.373 113.879Z" fill="#0582C1"/>
<path d="M107.292 107.964V109.599C107.9 108.509 108.523 107.964 109.163 107.964C109.451 107.964 109.692 108.053 109.886 108.231C110.079 108.41 110.169 108.614 110.169 108.844C110.169 109.049 110.1 109.227 109.964 109.368C109.828 109.51 109.66 109.583 109.472 109.583C109.283 109.583 109.079 109.494 108.848 109.311C108.618 109.127 108.45 109.038 108.335 109.038C108.241 109.038 108.136 109.091 108.026 109.196C107.785 109.41 107.544 109.767 107.287 110.264V113.748C107.287 114.152 107.339 114.456 107.439 114.66C107.507 114.801 107.628 114.922 107.806 115.016C107.979 115.111 108.23 115.158 108.56 115.158V115.441H104.84V115.158C105.212 115.158 105.485 115.1 105.663 114.985C105.794 114.901 105.888 114.765 105.941 114.581C105.967 114.492 105.982 114.236 105.982 113.811V110.998C105.982 110.154 105.967 109.646 105.93 109.489C105.893 109.326 105.831 109.211 105.741 109.138C105.647 109.065 105.532 109.028 105.396 109.028C105.233 109.028 105.045 109.07 104.84 109.148L104.762 108.865L106.957 107.975H107.292V107.964Z" fill="#0582C1"/>
<path d="M115.388 114.393C114.644 114.969 114.173 115.304 113.984 115.393C113.701 115.524 113.398 115.593 113.073 115.593C112.57 115.593 112.156 115.42 111.831 115.079C111.506 114.733 111.344 114.283 111.344 113.722C111.344 113.366 111.422 113.062 111.58 112.8C111.794 112.439 112.172 112.103 112.711 111.784C113.251 111.464 114.141 111.082 115.388 110.626V110.343C115.388 109.62 115.273 109.122 115.043 108.85C114.812 108.577 114.477 108.446 114.042 108.446C113.707 108.446 113.445 108.535 113.251 108.713C113.052 108.892 112.947 109.101 112.947 109.332L112.963 109.793C112.963 110.034 112.9 110.222 112.774 110.353C112.648 110.484 112.486 110.552 112.287 110.552C112.088 110.552 111.931 110.484 111.805 110.348C111.679 110.212 111.616 110.023 111.616 109.782C111.616 109.326 111.847 108.913 112.313 108.53C112.779 108.148 113.429 107.959 114.272 107.959C114.917 107.959 115.446 108.069 115.86 108.284C116.174 108.446 116.405 108.703 116.551 109.054C116.646 109.279 116.693 109.746 116.693 110.448V112.915C116.693 113.607 116.709 114.031 116.735 114.188C116.761 114.346 116.803 114.45 116.866 114.503C116.929 114.555 116.997 114.581 117.075 114.581C117.159 114.581 117.233 114.56 117.295 114.524C117.405 114.456 117.62 114.262 117.94 113.942V114.388C117.348 115.179 116.782 115.577 116.242 115.577C115.986 115.577 115.776 115.488 115.624 115.31C115.472 115.131 115.394 114.822 115.383 114.388L115.388 114.393ZM115.388 113.879V111.113C114.592 111.433 114.073 111.653 113.843 111.789C113.424 112.019 113.125 112.266 112.947 112.517C112.769 112.769 112.68 113.046 112.68 113.35C112.68 113.733 112.795 114.047 113.02 114.298C113.246 114.55 113.508 114.676 113.806 114.676C114.21 114.676 114.739 114.414 115.394 113.885L115.388 113.879Z" fill="#0582C1"/>
<path d="M128.443 115.147V115.441H123.838V115.147H124.22C124.666 115.147 124.985 115.016 125.19 114.76C125.315 114.592 125.378 114.183 125.378 113.539V106.592C125.378 106.047 125.342 105.685 125.273 105.512C125.221 105.381 125.111 105.266 124.949 105.172C124.718 105.046 124.472 104.983 124.22 104.983H123.838V104.69H128.443V104.983H128.055C127.615 104.983 127.296 105.114 127.097 105.371C126.966 105.539 126.898 105.947 126.898 106.592V113.539C126.898 114.084 126.934 114.445 127.002 114.618C127.055 114.749 127.165 114.864 127.338 114.959C127.563 115.084 127.804 115.147 128.061 115.147H128.448H128.443Z" fill="#0582C1"/>
<path d="M135.175 114.623C134.819 114.995 134.473 115.257 134.138 115.42C133.803 115.582 133.436 115.661 133.043 115.661C132.252 115.661 131.555 115.331 130.963 114.665C130.371 114 130.072 113.151 130.072 112.108C130.072 111.066 130.402 110.112 131.057 109.248C131.712 108.383 132.556 107.954 133.588 107.954C134.227 107.954 134.756 108.158 135.175 108.567V107.226C135.175 106.398 135.154 105.884 135.118 105.696C135.076 105.507 135.018 105.376 134.929 105.308C134.84 105.24 134.74 105.203 134.609 105.203C134.473 105.203 134.29 105.245 134.065 105.329L133.96 105.051L136.124 104.161H136.48V112.559C136.48 113.408 136.501 113.932 136.537 114.115C136.579 114.304 136.642 114.435 136.726 114.508C136.815 114.581 136.915 114.618 137.03 114.618C137.171 114.618 137.365 114.571 137.601 114.482L137.69 114.76L135.531 115.655H135.165V114.618L135.175 114.623ZM135.175 114.068V110.327C135.144 109.966 135.049 109.641 134.892 109.342C134.735 109.049 134.526 108.824 134.264 108.672C134.002 108.52 133.745 108.446 133.499 108.446C133.032 108.446 132.619 108.656 132.252 109.075C131.77 109.625 131.529 110.427 131.529 111.485C131.529 112.543 131.759 113.371 132.226 113.937C132.692 114.503 133.211 114.791 133.782 114.791C134.264 114.791 134.73 114.55 135.175 114.068Z" fill="#0582C1"/>
<path d="M142.416 107.964C143.517 107.964 144.397 108.383 145.068 109.216C145.633 109.929 145.916 110.752 145.916 111.674C145.916 112.323 145.759 112.983 145.45 113.649C145.141 114.314 144.706 114.817 144.161 115.158C143.616 115.498 143.003 115.666 142.333 115.666C141.238 115.666 140.368 115.231 139.724 114.356C139.179 113.623 138.906 112.795 138.906 111.883C138.906 111.218 139.069 110.552 139.404 109.898C139.734 109.237 140.169 108.755 140.709 108.436C141.248 108.116 141.819 107.964 142.422 107.964H142.416ZM142.17 108.478C141.887 108.478 141.61 108.562 141.327 108.729C141.044 108.897 140.813 109.19 140.64 109.604C140.468 110.018 140.378 110.558 140.378 111.213C140.378 112.271 140.588 113.183 141.007 113.947C141.426 114.712 141.982 115.1 142.668 115.1C143.181 115.1 143.606 114.89 143.936 114.466C144.271 114.042 144.434 113.313 144.434 112.287C144.434 110.998 144.156 109.981 143.601 109.243C143.223 108.734 142.747 108.483 142.165 108.483L142.17 108.478Z" fill="#0582C1"/>
<path d="M152.376 107.964V110.437H152.114C151.915 109.662 151.653 109.133 151.339 108.85C151.025 108.567 150.626 108.431 150.139 108.431C149.767 108.431 149.468 108.53 149.243 108.724C149.018 108.918 148.903 109.138 148.903 109.374C148.903 109.672 148.986 109.924 149.154 110.133C149.317 110.348 149.652 110.579 150.155 110.825L151.313 111.391C152.387 111.915 152.921 112.606 152.921 113.46C152.921 114.12 152.67 114.655 152.172 115.058C151.674 115.462 151.114 115.666 150.495 115.666C150.05 115.666 149.542 115.587 148.971 115.43C148.798 115.378 148.651 115.352 148.541 115.352C148.421 115.352 148.326 115.42 148.258 115.556H147.996V112.962H148.258C148.405 113.701 148.688 114.262 149.107 114.634C149.526 115.006 149.992 115.2 150.511 115.2C150.878 115.2 151.171 115.09 151.402 114.88C151.632 114.665 151.748 114.408 151.748 114.105C151.748 113.738 151.617 113.434 151.365 113.183C151.108 112.936 150.595 112.622 149.83 112.239C149.065 111.857 148.562 111.516 148.321 111.207C148.08 110.903 147.965 110.526 147.965 110.065C147.965 109.468 148.169 108.97 148.578 108.567C148.986 108.163 149.516 107.964 150.171 107.964C150.453 107.964 150.804 108.027 151.208 108.148C151.475 108.226 151.658 108.268 151.748 108.268C151.831 108.268 151.899 108.247 151.947 108.211C151.994 108.174 152.051 108.09 152.114 107.964H152.376Z" fill="#0582C1"/>
<path d="M158.254 107.964C159.355 107.964 160.235 108.383 160.905 109.216C161.471 109.929 161.754 110.752 161.754 111.674C161.754 112.323 161.597 112.983 161.288 113.649C160.979 114.314 160.544 114.817 159.999 115.158C159.454 115.498 158.841 115.666 158.171 115.666C157.076 115.666 156.206 115.231 155.561 114.356C155.017 113.623 154.744 112.795 154.744 111.883C154.744 111.218 154.907 110.552 155.242 109.898C155.572 109.237 156.007 108.755 156.546 108.436C157.086 108.116 157.657 107.964 158.26 107.964H158.254ZM158.008 108.478C157.725 108.478 157.448 108.562 157.165 108.729C156.882 108.897 156.651 109.19 156.478 109.604C156.305 110.018 156.216 110.558 156.216 111.213C156.216 112.271 156.426 113.183 156.845 113.947C157.264 114.712 157.82 115.1 158.506 115.1C159.019 115.1 159.444 114.89 159.774 114.466C160.109 114.042 160.271 113.313 160.271 112.287C160.271 110.998 159.994 109.981 159.438 109.243C159.061 108.734 158.584 108.483 158.003 108.483L158.008 108.478Z" fill="#0582C1"/>
<path d="M168.214 107.964V110.437H167.952C167.753 109.662 167.491 109.133 167.177 108.85C166.862 108.567 166.464 108.431 165.977 108.431C165.605 108.431 165.306 108.53 165.081 108.724C164.856 108.918 164.741 109.138 164.741 109.374C164.741 109.672 164.824 109.924 164.992 110.133C165.154 110.348 165.49 110.579 165.993 110.825L167.151 111.391C168.225 111.915 168.759 112.606 168.759 113.46C168.759 114.12 168.508 114.655 168.01 115.058C167.512 115.462 166.951 115.666 166.333 115.666C165.888 115.666 165.38 115.587 164.809 115.43C164.636 115.378 164.489 115.352 164.379 115.352C164.259 115.352 164.164 115.42 164.096 115.556H163.834V112.962H164.096C164.243 113.701 164.526 114.262 164.945 114.634C165.364 115.006 165.83 115.2 166.349 115.2C166.716 115.2 167.009 115.09 167.24 114.88C167.47 114.665 167.585 114.408 167.585 114.105C167.585 113.738 167.454 113.434 167.203 113.183C166.946 112.936 166.433 112.622 165.668 112.239C164.903 111.857 164.4 111.516 164.159 111.207C163.918 110.903 163.803 110.526 163.803 110.065C163.803 109.468 164.007 108.97 164.416 108.567C164.824 108.163 165.354 107.964 166.008 107.964C166.291 107.964 166.642 108.027 167.046 108.148C167.313 108.226 167.496 108.268 167.585 108.268C167.669 108.268 167.737 108.247 167.785 108.211C167.832 108.174 167.889 108.09 167.952 107.964H168.214Z" fill="#0582C1"/>
</svg>
