<svg width="45" height="14" viewBox="0 0 45 14" fill="none" xmlns="http://www.w3.org/2000/svg">
<path d="M11.6904 7.10913L1.71862 12.1045H12.6476V13.8232H1.7023C0.761413 13.8232 0 13.0454 0 12.1045C0 11.4519 0.397022 10.8727 0.959924 10.5844L10.9127 5.58902H0V3.88672H10.948C11.8699 3.88672 12.6503 4.64541 12.6503 5.58902C12.6503 6.27701 12.2343 6.83719 11.6904 7.10913Z" fill="white"/>
<path d="M14.3516 3.89844H16.0539V13.8322H14.3516V3.89844Z" fill="white"/>
<path d="M30.4023 7.4747L30.3832 10.2239C30.3642 12.1955 28.7897 13.8243 26.8182 13.8243H21.336C19.3645 13.8243 17.752 12.1955 17.752 10.2239V7.4747C17.752 5.50319 19.3618 3.89062 21.336 3.89062H26.8182C28.7897 3.89062 30.3832 5.50047 30.4023 7.4747ZM28.6837 7.4747C28.6837 6.44408 27.8515 5.59293 26.8209 5.59293H21.3388C20.3081 5.59293 19.476 6.44408 19.476 7.4747V10.2239C19.476 11.2546 20.3081 12.1057 21.3388 12.1057H26.8209C27.8515 12.1057 28.6837 11.2546 28.6837 10.2239V7.4747Z" fill="white"/>
<path d="M44.7524 7.48252V13.8349H43.0501V7.48252C43.0501 6.45189 42.1989 5.60074 41.1873 5.60074H33.8234V13.8349H32.1211V3.89844H41.1873C43.1425 3.89844 44.7524 5.50828 44.7524 7.48252Z" fill="white"/>
<path d="M27.7654 0.498047H20.3906V2.19763H27.7654V0.498047Z" fill="white"/>
</svg>
