<svg width="65" height="65" viewBox="0 0 65 65" fill="none" xmlns="http://www.w3.org/2000/svg">
<path d="M1.72754 32.1967C1.72603 37.6431 3.14912 42.9611 5.8551 47.6484L1.46875 63.6637L17.8584 59.3663C22.3916 61.8341 27.4706 63.1272 32.632 63.1275H32.6456C49.6842 63.1275 63.554 49.2627 63.5613 32.2211C63.5646 23.9632 60.3516 16.198 54.514 10.3559C48.6774 4.5143 40.915 1.29552 32.6443 1.29175C15.6037 1.29175 1.73483 15.1558 1.72779 32.1967" fill="#03C100"/>
<path d="M24.6476 18.8043C24.0481 17.4719 23.4172 17.4451 22.8471 17.4217C22.3803 17.4016 21.8466 17.4031 21.3135 17.4031C20.7798 17.4031 19.9128 17.6039 19.1799 18.4041C18.4462 19.2051 16.3789 21.1407 16.3789 25.0776C16.3789 29.0144 19.2464 32.8194 19.6462 33.3538C20.0464 33.8872 25.182 42.2248 33.3155 45.4322C40.0752 48.0978 41.4508 47.5676 42.9179 47.434C44.3852 47.3008 47.6524 45.4988 48.319 43.6303C48.9861 41.762 48.9861 40.1605 48.7861 39.8258C48.5861 39.4924 48.0524 39.2921 47.2522 38.8922C46.452 38.4922 42.5176 36.556 41.7842 36.2889C41.0506 36.0221 40.5172 35.8889 39.9835 36.6902C39.4498 37.4902 37.9175 39.2922 37.4504 39.8258C36.9838 40.3607 36.5167 40.4273 35.7167 40.0271C34.916 39.6256 32.3389 38.7816 29.2814 36.0558C26.9026 33.9347 25.2966 31.3154 24.8298 30.5142C24.3629 29.7142 24.7798 29.2805 25.181 28.8818C25.5405 28.5233 25.9815 27.9474 26.382 27.4803C26.781 27.013 26.9141 26.6796 27.181 26.1459C27.448 25.6117 27.3144 25.1444 27.1146 24.7442C26.9141 24.3439 25.3591 20.3865 24.6476 18.8043Z" fill="white"/>
</svg>
